<svg version="1.1" data-id="separator-top-14" xmlns="http://www.w3.org/2000/svg" xmlns:xlink="http://www.w3.org/1999/xlink"
	 viewBox="44 0 1806 80" xml:space="preserve">
<path fill="@color1" d="M0.1,40C0.7,47,7.6,52,16,52s15.3-5,15.9-12h0.1c0.6,7,7.5,12,15.9,12s15.3-5,15.9-12h0.1
	c0.6,7,7.5,12,15.9,12s15.3-5,15.9-12h0.1c0.6,7,7.5,12,15.9,12s15.3-5,15.9-12h0.1c0.6,7,7.5,12,15.9,12s15.3-5,15.9-12h0.1
	c0.6,7,7.5,12,15.9,12s15.3-5,15.9-12h0.1c0.6,7,7.5,12,15.9,12s15.3-5,15.9-12h0.1c0.6,7,7.5,12,15.9,12s15.3-5,15.9-12h0.1
	c0.6,7,7.5,12,15.9,12s15.3-5,15.9-12h0.1c0.6,7,7.5,12,15.9,12s15.3-5,15.9-12h0.1c0.6,7,7.5,12,15.9,12s15.3-5,15.9-12h0.1
	c0.6,7,7.5,12,15.9,12s15.3-5,15.9-12h0.1c0.6,7,7.5,12,15.9,12s15.3-5,15.9-12h0.1c0.6,7,7.5,12,15.9,12s15.3-5,15.9-12h0.1
	c0.6,7,7.5,12,15.9,12s15.3-5,15.9-12h0.1c0.6,7,7.5,12,15.9,12s15.3-5,15.9-12h0.1c0.6,7,7.5,12,15.9,12s15.3-5,15.9-12h0.1
	c0.6,7,7.5,12,15.9,12s15.3-5,15.9-12h0.1c0.6,7,7.5,12,15.9,12s15.3-5,15.9-12h0.1c0.6,7,7.5,12,15.9,12s15.3-5,15.9-12h0.1
	c0.6,7,7.5,12,15.9,12s15.3-5,15.9-12h0.1c0.6,7,7.5,12,15.9,12s15.3-5,15.9-12h0.1c0.6,7,7.5,12,15.9,12s15.3-5,15.9-12h0.1
	c0.6,7,7.5,12,15.9,12s15.3-5,15.9-12h0.1c0.6,7,7.5,12,15.9,12s15.3-5,15.9-12h0.1c0.6,7,7.5,12,15.9,12s15.3-5,15.9-12h0.1
	c0.6,7,7.5,12,15.9,12s15.3-5,15.9-12h0.1c0.6,7,7.5,12,15.9,12s15.3-5,15.9-12h0.1c0.6,7,7.5,12,15.9,12s15.3-5,15.9-12h0.1
	c0.6,7,7.5,12,15.9,12s15.3-5,15.9-12h0.1c0.6,7,7.5,12,15.9,12s15.3-5.3,15.9-12h0.1c0.6,6.7,7.5,12,15.9,12s15.3-5.3,15.9-12h0.1
	c0.6,6.7,7.5,12,15.9,12s15.3-5.3,15.9-12h0.1c0.6,6.7,7.5,12,15.9,12s15.3-5.3,15.9-12h0.1c0.6,6.7,7.5,12,15.9,12
	s15.3-5.3,15.9-12h0.1c0.6,6.7,7.5,12,15.9,12s15.3-5.3,15.9-12h0.1c0.6,6.7,7.5,12,15.9,12s15.3-5.3,15.9-12h0.1
	c0.6,6.7,7.5,12,15.9,12s15.3-5.3,15.9-12h0.1c0.6,6.7,7.5,12,15.9,12s15.3-5.3,15.9-12h0.1c0.6,6.7,7.5,12,15.9,12
	s15.3-5.3,15.9-12h0.1c0.6,6.7,7.5,12,15.9,12s15.3-5.3,15.9-12h0.1c0.6,6.7,7.5,12,15.9,12s15.3-5.3,15.9-12h0.1
	c0.6,6.7,7.5,12,15.9,12s15.3-5.3,15.9-12h0.1c0.6,6.7,7.5,12,15.9,12s15.3-5.3,15.9-12h0.1c0.6,6.7,7.5,12,15.9,12
	s15.3-5.3,15.9-12h0.1c0.6,6.7,7.5,12,15.9,12s15.3-5.3,15.9-12h0.1c0.6,6.7,7.5,12,15.9,12s15.3-5.3,15.9-12h0.1
	c0.6,6.7,7.5,12,15.9,12s15.3-5.3,15.9-12h0.1c0.6,6.7,7.5,12,15.9,12s15.3-5.3,15.9-12h0.1c0.6,6.7,7.5,12,15.9,12
	s15.3-5.3,15.9-12h0.1c0.6,6.7,7.5,12,15.9,12s15.3-5.3,15.9-12h0.1c0.6,6.7,7.5,12,15.9,12s15.3-5.3,15.9-12h0.1
	c0.6,6.7,7.5,12,15.9,12s15.3-5.3,15.9-12h0.1c0.6,6.7,7.5,12,15.9,12s15.3-5.3,15.9-12h0.1c0.6,6.7,7.5,12,15.9,12
	s15.3-5.3,15.9-12h0.1c0.6,6.7,7.5,12,15.9,12s15.3-5.3,15.9-12h0.1c0.6,6.7,7.5,12,15.9,12s15.3-5.3,15.9-12h0.1
	c0.6,6.7,7.5,12,15.9,12s15.3-5.3,15.9-12h0.1c0.6,6.7,7.5,12,15.9,12s15.3-5.3,15.9-12h0.1c0.6,6.7,7.5,12,15.9,12
	s15.3-5.3,15.9-12h0.1V0L0,0L0.1,40L0.1,40z"/>
</svg>


