<svg version="1.1" data-id="separator-top-15" xmlns="http://www.w3.org/2000/svg" xmlns:xlink="http://www.w3.org/1999/xlink"
	 viewBox="44 4 1806 80" enable-background="new 0 0 1920 80" xml:space="preserve">
<path fill="@color1" d="M-1,1v40h1.1C0.7,34,7.6,29,16,29s15.3,5,15.9,12h0.1c0.6-7,7.5-12,15.9-12s15.3,5,15.9,12h0.1
	c0.6-7,7.5-12,15.9-12s15.3,5,15.9,12h0.1c0.6-7,7.5-12,15.9-12s15.3,5,15.9,12h0.1c0.6-7,7.5-12,15.9-12s15.3,5,15.9,12h0.1
	c0.6-7,7.5-12,15.9-12s15.3,5,15.9,12h0.1c0.6-7,7.5-12,15.9-12s15.3,5,15.9,12h0.1c0.6-7,7.5-12,15.9-12s15.3,5,15.9,12h0.1
	c0.6-7,7.5-12,15.9-12s15.3,5,15.9,12h0.1c0.6-7,7.5-12,15.9-12s15.3,5,15.9,12h0.1c0.6-7,7.5-12,15.9-12s15.3,5,15.9,12h0.1
	c0.6-7,7.5-12,15.9-12s15.3,5,15.9,12h0.1c0.6-7,7.5-12,15.9-12s15.3,5,15.9,12h0.1c0.6-7,7.5-12,15.9-12s15.3,5,15.9,12h0.1
	c0.6-7,7.5-12,15.9-12s15.3,5,15.9,12h0.1c0.6-7,7.5-12,15.9-12s15.3,5,15.9,12h0.1c0.6-7,7.5-12,15.9-12s15.3,5,15.9,12h0.1
	c0.6-7,7.5-12,15.9-12s15.3,5,15.9,12h0.1c0.6-7,7.5-12,15.9-12s15.3,5,15.9,12h0.1c0.6-7,7.5-12,15.9-12s15.3,5,15.9,12h0.1
	c0.6-7,7.5-12,15.9-12s15.3,5,15.9,12h0.1c0.6-7,7.5-12,15.9-12s15.3,5,15.9,12h0.1c0.6-7,7.5-12,15.9-12s15.3,5,15.9,12h0.1
	c0.6-7,7.5-12,15.9-12s15.3,5,15.9,12h0.1c0.6-7,7.5-12,15.9-12s15.3,5,15.9,12h0.1c0.6-7,7.5-12,15.9-12s15.3,5,15.9,12h0.1
	c0.6-7,7.5-12,15.9-12s15.3,5,15.9,12h0.1c0.6-7,7.5-12,15.9-12s15.3,5,15.9,12h0.1c0.6-7,7.5-12,15.9-12s15.3,5,15.9,12h0.1
	c0.6-7,7.5-12,15.9-12s15.3,5,15.9,12h0.1c0.6-7,7.5-12,15.9-12s15.3,5,15.9,12h0.1c0.6-7,7.5-12,15.9-12s15.3,5,15.9,12h0.1
	c0.6-7,7.5-12,15.9-12s15.3,5,15.9,12h0.1c0.6-7,7.5-12,15.9-12s15.3,5,15.9,12h0.1c0.6-7,7.5-12,15.9-12s15.3,5,15.9,12h0.1
	c0.6-7,7.5-12,15.9-12s15.3,5,15.9,12h0.1c0.6-7,7.5-12,15.9-12s15.3,5,15.9,12h0.1c0.6-7,7.5-12,15.9-12s15.3,5,15.9,12h0.1
	c0.6-7,7.5-12,15.9-12s15.3,5,15.9,12h0.1c0.6-7,7.5-12,15.9-12s15.3,5,15.9,12h0.1c0.6-7,7.5-12,15.9-12s15.3,5,15.9,12h0.1
	c0.6-7,7.5-12,15.9-12s15.3,5,15.9,12h0.1c0.6-7,7.5-12,15.9-12s15.3,5,15.9,12h0.1c0.6-7,7.5-12,15.9-12s15.3,5,15.9,12h0.1
	c0.6-7,7.5-12,15.9-12s15.3,5,15.9,12h0.1c0.6-7,7.5-12,15.9-12s15.3,5,15.9,12h0.1c0.6-7,7.5-12,15.9-12s15.3,5,15.9,12h0.1
	c0.6-7,7.5-12,15.9-12s15.3,5,15.9,12h0.1c0.6-7,7.5-12,15.9-12s15.3,5,15.9,12h0.1c0.6-7,7.5-12,15.9-12s15.3,5,15.9,12h0.1
	c0.6-7,7.5-12,15.9-12s15.3,5,15.9,12h0.1c0.6-7,7.5-12,15.9-12s15.3,5,15.9,12h0.1c0.6-7,7.5-12,15.9-12s15.3,5,15.9,12h0.1
	c0.6-7,7.5-12,15.9-12s15.3,5,15.9,12h0.1c0.6-7,7.5-12,15.9-12s15.3,5,15.9,12h0.1c0.6-7,7.5-12,15.9-12s15.3,5,15.9,12h0.1
	c0.6-7,7.5-12,15.9-12s15.3,5,15.9,12h0.1c0.6-7,7.5-12,15.9-12s15.3,5,15.9,12h0.1c0.6-7,7.5-12,15.9-12s15.3,5,15.9,12h0.1
	c0.6-7,7.5-12,15.9-12s15.3,5,15.9,12h-0.9V1H-1z"/>
</svg>
