<svg version="1.1" data-id="separator-bottom-14" xmlns="http://www.w3.org/2000/svg" xmlns:xlink="http://www.w3.org/1999/xlink"
	 viewBox="44 0 1806 80" enable-background="new 0 0 1920 80" xml:space="preserve">
<path fill="@color1" d="M1919.9,40c-0.6-6.7-7.5-12-15.9-12s-15.3,5.3-15.9,12h-0.1c-0.6-6.7-7.5-12-15.9-12s-15.3,5.3-15.9,12h-0.1
	c-0.6-6.7-7.5-12-15.9-12s-15.3,5.3-15.9,12h-0.1c-0.6-6.7-7.5-12-15.9-12s-15.3,5.3-15.9,12h-0.1c-0.6-6.7-7.5-12-15.9-12
	s-15.3,5.3-15.9,12h-0.1c-0.6-6.7-7.5-12-15.9-12s-15.3,5.3-15.9,12h-0.1c-0.6-6.7-7.5-12-15.9-12s-15.3,5.3-15.9,12h-0.1
	c-0.6-6.7-7.5-12-15.9-12s-15.3,5.3-15.9,12h-0.1c-0.6-6.7-7.5-12-15.9-12s-15.3,5.3-15.9,12h-0.1c-0.6-6.7-7.5-12-15.9-12
	s-15.3,5.3-15.9,12h-0.1c-0.6-6.7-7.5-12-15.9-12s-15.3,5.3-15.9,12h-0.1c-0.6-6.7-7.5-12-15.9-12s-15.3,5.3-15.9,12h-0.1
	c-0.6-6.7-7.5-12-15.9-12s-15.3,5.3-15.9,12h-0.1c-0.6-6.7-7.5-12-15.9-12s-15.3,5.3-15.9,12h-0.1c-0.6-6.7-7.5-12-15.9-12
	s-15.3,5.3-15.9,12h-0.1c-0.6-6.7-7.5-12-15.9-12s-15.3,5.3-15.9,12h-0.1c-0.6-6.7-7.5-12-15.9-12s-15.3,5.3-15.9,12h-0.1
	c-0.6-6.7-7.5-12-15.9-12s-15.3,5.3-15.9,12h-0.1c-0.6-6.7-7.5-12-15.9-12s-15.3,5.3-15.9,12h-0.1c-0.6-6.7-7.5-12-15.9-12
	s-15.3,5.3-15.9,12h-0.1c-0.6-6.7-7.5-12-15.9-12s-15.3,5.3-15.9,12h-0.1c-0.6-6.7-7.5-12-15.9-12s-15.3,5.3-15.9,12h-0.1
	c-0.6-6.7-7.5-12-15.9-12s-15.3,5.3-15.9,12h-0.1c-0.6-6.7-7.5-12-15.9-12s-15.3,5.3-15.9,12h-0.1c-0.6-6.7-7.5-12-15.9-12
	s-15.3,5.3-15.9,12h-0.1c-0.6-6.7-7.5-12-15.9-12s-15.3,5.3-15.9,12h-0.1c-0.6-6.7-7.5-12-15.9-12s-15.3,5.3-15.9,12h-0.1
	c-0.6-6.7-7.5-12-15.9-12s-15.3,5.3-15.9,12h-0.1c-0.6-6.7-7.5-12-15.9-12s-15.3,5.3-15.9,12h-0.1c-0.6-6.7-7.5-12-15.9-12
	s-15.3,5.3-15.9,12h-0.1c-0.6-6.7-7.5-12-15.9-12s-15.3,5.3-15.9,12h-0.1c-0.6-6.7-7.5-12-15.9-12s-15.3,5.3-15.9,12h-0.1
	c-0.6-6.7-7.5-12-15.9-12s-15.3,5.3-15.9,12h-0.1c-0.6-6.7-7.5-12-15.9-12s-15.3,5.3-15.9,12h-0.1c-0.6-6.7-7.5-12-15.9-12
	s-15.3,5.3-15.9,12h-0.1c-0.6-6.7-7.5-12-15.9-12s-15.3,5.3-15.9,12h-0.1c-0.6-6.7-7.5-12-15.9-12s-15.3,5.3-15.9,12h-0.1
	c-0.6-6.7-7.5-12-15.9-12s-15.3,5.3-15.9,12h-0.1c-0.6-6.7-7.5-12-15.9-12s-15.3,5.3-15.9,12h-0.1c-0.6-6.7-7.5-12-15.9-12
	s-15.3,5.3-15.9,12h-0.1c-0.6-6.7-7.5-12-15.9-12s-15.3,5.3-15.9,12h-0.1c-0.6-6.7-7.5-12-15.9-12s-15.3,5.3-15.9,12h-0.1
	c-0.6-6.7-7.5-12-15.9-12s-15.3,5.3-15.9,12h-0.1c-0.6-6.7-7.5-12-15.9-12s-15.3,5.3-15.9,12h-0.1c-0.6-6.7-7.5-12-15.9-12
	s-15.3,5.3-15.9,12h-0.1c-0.6-6.7-7.5-12-15.9-12s-15.3,5.3-15.9,12h-0.1c-0.6-6.7-7.5-12-15.9-12s-15.3,5.3-15.9,12h-0.1
	c-0.6-6.7-7.5-12-15.9-12s-15.3,5.3-15.9,12h-0.1c-0.6-6.7-7.5-12-15.9-12s-15.3,5.3-15.9,12h-0.1c-0.6-6.7-7.5-12-15.9-12
	s-15.3,5.3-15.9,12h-0.1c-0.6-6.7-7.5-12-15.9-12s-15.3,5.3-15.9,12h-0.1c-0.6-6.7-7.5-12-15.9-12s-15.3,5.3-15.9,12h-0.1
	c-0.6-6.7-7.5-12-15.9-12s-15.3,5.3-15.9,12h-0.1c-0.6-6.7-7.5-12-15.9-12s-15.3,5.3-15.9,12h-0.1c-0.6-6.7-7.5-12-15.9-12
	s-15.3,5.3-15.9,12h-0.1c-0.6-6.7-7.5-12-15.9-12s-15.3,5.3-15.9,12h-0.1c-0.6-6.7-7.5-12-15.9-12s-15.3,5.3-15.9,12h-0.1
	c-0.6-6.7-7.5-12-15.9-12s-15.3,5.3-15.9,12h-0.1c-0.6-6.7-7.5-12-15.9-12s-15.3,5.3-15.9,12h-0.1c-0.6-6.7-7.5-12-15.9-12
	S0.7,33.3,0.1,40H0v40h1920L1919.9,40L1919.9,40z"/>
</svg>
