<svg version="1.1" xmlns="http://www.w3.org/2000/svg" xmlns:xlink="http://www.w3.org/1999/xlink" x="0px" y="0px"
	 width="100" height="90" enable-background="new 0 0 100 90" xml:space="preserve">
<path fill-rule="evenodd" clip-rule="evenodd" fill="@color1" d="M5.9,45c0-1.5-1.2-2.6-2.6-2.6c-1.5,0-2.6,1.2-2.6,2.6
	s1.2,2.6,2.6,2.6C4.7,47.6,5.9,46.5,5.9,45 M0.6,52.4h5.4c1.5,8,5.4,15.1,10.9,20.7c7.2,7.2,17.1,11.6,28.1,11.6h55.6V5.3H44.9
	c-11,0-20.9,4.4-28.1,11.6c-5.5,5.5-9.4,12.7-10.9,20.7H0.6C-0.2,41.6-0.2,48.4,0.6,52.4z"/>
<path d="M5.9,45c0-1.5-1.2-2.6-2.6-2.6c-1.5,0-2.6,1.2-2.6,2.6s1.2,2.6,2.6,2.6C4.7,47.6,5.9,46.5,5.9,45 M44.9,0
	C22.6,0,4.1,16.3,0.6,37.6h5.4c1.5-8,5.4-15.1,10.9-20.7C24.1,9.7,34,5.3,44.9,5.3h55.6V0H44.9z M16.9,73.1
	c-5.5-5.5-9.4-12.7-10.9-20.7H0.6C4.1,73.7,22.6,90,44.9,90h55.6v-5.3H44.9C34,84.7,24.1,80.3,16.9,73.1z"/>
</svg>
